<svg width="112" height="33" viewBox="0 0 112 33" fill="none" xmlns="http://www.w3.org/2000/svg">
<path d="M107.341 32.5H4.85153C2.59779 32.5 0.751953 30.699 0.751953 28.5V4.5C0.751953 2.301 2.59779 0.5 4.85153 0.5H107.341C109.595 0.5 111.44 2.301 111.44 4.5V28.5C111.44 30.699 109.595 32.5 107.341 32.5Z" fill="black"/>
<path d="M8.69273 6.53134C8.45188 6.77734 8.3125 7.16034 8.3125 7.65634V25.3483C8.3125 25.8443 8.45188 26.2273 8.69273 26.4733L8.75218 26.5273L18.913 16.6173V16.3833L8.75218 6.47334L8.69273 6.53134Z" fill="white"/>
<path d="M23.5258 19.9224L20.1426 16.6174V16.3834L23.5299 13.0784L23.6057 13.1214L27.6171 15.3484C28.7619 15.9804 28.7619 17.0204 27.6171 17.6564L23.6057 19.8794L23.5258 19.9224Z" fill="white"/>
<path d="M22.9919 20.4947L19.5288 17.1157L9.30859 27.0887C9.68883 27.4787 10.3089 27.5257 11.014 27.1357L22.9919 20.4947Z" fill="white"/>
<path d="M22.9919 12.5063L11.014 5.86526C10.3089 5.47925 9.68883 5.52625 9.30859 5.91625L19.5288 15.8853L22.9919 12.5063Z" fill="white"/>
<path d="M39.631 8.6947C39.631 9.3627 39.426 9.8977 39.0222 10.2967C38.5579 10.7697 37.9532 11.0077 37.2122 11.0077C36.504 11.0077 35.8993 10.7657 35.4033 10.2887C34.9062 9.8047 34.6582 9.2107 34.6582 8.4997C34.6582 7.7887 34.9062 7.1947 35.4033 6.7147C35.8993 6.2337 36.504 5.9917 37.2122 5.9917C37.5648 5.9917 37.901 6.0627 38.2218 6.1947C38.5415 6.3277 38.8018 6.5077 38.9904 6.7297L38.562 7.1517C38.233 6.7727 37.7852 6.5857 37.2122 6.5857C36.6957 6.5857 36.2478 6.7617 35.8676 7.1167C35.4914 7.4727 35.3029 7.9337 35.3029 8.4997C35.3029 9.0657 35.4914 9.5307 35.8676 9.8867C36.2478 10.2377 36.6957 10.4177 37.2122 10.4177C37.7606 10.4177 38.2218 10.2377 38.5856 9.8827C38.8254 9.6477 38.9617 9.3237 38.9976 8.9097H37.2122V8.3317H39.5941C39.6228 8.4567 39.631 8.5777 39.631 8.6947Z" fill="white" stroke="white" stroke-width="0.16" stroke-miterlimit="10"/>
<path d="M43.4098 6.69105H41.1724V8.21105H43.1894V8.78905H41.1724V10.3091H43.4098V10.8981H40.5391V6.10205H43.4098V6.69105Z" fill="white" stroke="white" stroke-width="0.16" stroke-miterlimit="10"/>
<path d="M46.076 10.8981H45.4426V6.69105H44.0703V6.10205H47.4494V6.69105H46.076V10.8981Z" fill="white" stroke="white" stroke-width="0.16" stroke-miterlimit="10"/>
<path d="M49.8955 10.8981V6.10205H50.5279V10.8981H49.8955Z" fill="white" stroke="white" stroke-width="0.16" stroke-miterlimit="10"/>
<path d="M53.3309 10.8981H52.7026V6.69105H51.3252V6.10205H54.7084V6.69105H53.3309V10.8981Z" fill="white" stroke="white" stroke-width="0.16" stroke-miterlimit="10"/>
<path d="M61.1057 10.2807C60.6209 10.7657 60.0203 11.0077 59.3039 11.0077C58.5834 11.0077 57.9828 10.7657 57.498 10.2807C57.0143 9.7967 56.7734 9.2027 56.7734 8.4997C56.7734 7.7967 57.0143 7.2027 57.498 6.7187C57.9828 6.2337 58.5834 5.9917 59.3039 5.9917C60.0162 5.9917 60.6168 6.2337 61.1016 6.7227C61.5894 7.2107 61.8303 7.8007 61.8303 8.4997C61.8303 9.2027 61.5894 9.7967 61.1057 10.2807ZM57.9664 9.8787C58.3313 10.2377 58.7751 10.4177 59.3039 10.4177C59.8286 10.4177 60.2765 10.2377 60.6373 9.8787C61.0011 9.5197 61.1856 9.0587 61.1856 8.4997C61.1856 7.9407 61.0011 7.4797 60.6373 7.1207C60.2765 6.7617 59.8286 6.5817 59.3039 6.5817C58.7751 6.5817 58.3313 6.7617 57.9664 7.1207C57.6026 7.4797 57.4181 7.9407 57.4181 8.4997C57.4181 9.0587 57.6026 9.5197 57.9664 9.8787Z" fill="white" stroke="white" stroke-width="0.16" stroke-miterlimit="10"/>
<path d="M62.7188 10.8981V6.10205H63.4874L65.8775 9.83205H65.9051L65.8775 8.91005V6.10205H66.5098V10.8981H65.8498L63.347 6.98405H63.3193L63.347 7.91005V10.8981H62.7188Z" fill="white" stroke="white" stroke-width="0.16" stroke-miterlimit="10"/>
<path d="M56.6179 17.9022C54.6922 17.9022 53.1189 19.3322 53.1189 21.3052C53.1189 23.2622 54.6922 24.7072 56.6179 24.7072C58.5478 24.7072 60.121 23.2622 60.121 21.3052C60.121 19.3322 58.5478 17.9022 56.6179 17.9022ZM56.6179 23.3672C55.5613 23.3672 54.6522 22.5162 54.6522 21.3052C54.6522 20.0782 55.5613 19.2422 56.6179 19.2422C57.6746 19.2422 58.5878 20.0782 58.5878 21.3052C58.5878 22.5162 57.6746 23.3672 56.6179 23.3672ZM48.9835 17.9022C47.0536 17.9022 45.4845 19.3322 45.4845 21.3052C45.4845 23.2622 47.0536 24.7072 48.9835 24.7072C50.9123 24.7072 52.4825 23.2622 52.4825 21.3052C52.4825 19.3322 50.9123 17.9022 48.9835 17.9022ZM48.9835 23.3672C47.9258 23.3672 47.0137 22.5162 47.0137 21.3052C47.0137 20.0782 47.9258 19.2422 48.9835 19.2422C50.0402 19.2422 50.9492 20.0782 50.9492 21.3052C50.9492 22.5162 50.0402 23.3672 48.9835 23.3672ZM39.8988 18.9452V20.3912H43.4378C43.3343 21.1992 43.0576 21.7932 42.6333 22.2072C42.1167 22.7072 41.3122 23.2622 39.8988 23.2622C37.7209 23.2622 36.0155 21.5472 36.0155 19.4222C36.0155 17.2972 37.7209 15.5822 39.8988 15.5822C41.0764 15.5822 41.9333 16.0312 42.5656 16.6132L43.61 15.5942C42.7255 14.7702 41.5489 14.1372 39.8988 14.1372C36.9123 14.1372 34.4023 16.5082 34.4023 19.4222C34.4023 22.3362 36.9123 24.7072 39.8988 24.7072C41.5131 24.7072 42.7255 24.1912 43.6787 23.2232C44.6554 22.2702 44.9598 20.9302 44.9598 19.8482C44.9598 19.5122 44.9311 19.2032 44.8798 18.9452H39.8988ZM77.0471 20.0662C76.7591 19.3052 75.8706 17.9022 74.0606 17.9022C72.267 17.9022 70.7738 19.2812 70.7738 21.3052C70.7738 23.2112 72.2517 24.7072 74.2328 24.7072C75.8347 24.7072 76.7591 23.7542 77.1394 23.1992L75.9505 22.4262C75.5539 22.9922 75.0137 23.3672 74.2328 23.3672C73.4569 23.3672 72.9004 23.0202 72.5437 22.3362L77.208 20.4532L77.0471 20.0662ZM72.2916 21.1992C72.2517 19.8872 73.336 19.2152 74.1129 19.2152C74.7217 19.2152 75.2382 19.5122 75.4104 19.9372L72.2916 21.1992ZM68.5005 24.5002H70.0338V14.5002H68.5005V24.5002ZM65.9896 18.6602H65.9383C65.5939 18.2622 64.937 17.9022 64.1048 17.9022C62.3584 17.9022 60.7616 19.3982 60.7616 21.3162C60.7616 23.2232 62.3584 24.7072 64.1048 24.7072C64.937 24.7072 65.5939 24.3442 65.9383 23.9342H65.9896V24.4222C65.9896 25.7232 65.2773 26.4222 64.1284 26.4222C63.1916 26.4222 62.6105 25.7622 62.3707 25.2072L61.0373 25.7502C61.4216 26.6522 62.4393 27.7622 64.1284 27.7622C65.926 27.7622 67.4429 26.7302 67.4429 24.2192V18.1092H65.9896V18.6602ZM64.236 23.3672C63.1793 23.3672 62.2948 22.5042 62.2948 21.3162C62.2948 20.1172 63.1793 19.2422 64.236 19.2422C65.2773 19.2422 66.0982 20.1172 66.0982 21.3162C66.0982 22.5042 65.2773 23.3672 64.236 23.3672ZM84.2255 14.5002H80.5584V24.5002H82.0876V20.7112H84.2255C85.9237 20.7112 87.5892 19.5122 87.5892 17.6052C87.5892 15.6992 85.9196 14.5002 84.2255 14.5002ZM84.2655 19.3202H82.0876V15.8912H84.2655C85.4072 15.8912 86.059 16.8162 86.059 17.6052C86.059 18.3792 85.4072 19.3202 84.2655 19.3202ZM93.7181 17.8832C92.6132 17.8832 91.4643 18.3592 90.9918 19.4142L92.3488 19.9692C92.6409 19.4142 93.1779 19.2342 93.7457 19.2342C94.539 19.2342 95.3435 19.6992 95.3558 20.5202V20.6252C95.0791 20.4692 94.4867 20.2382 93.758 20.2382C92.2965 20.2382 90.8073 21.0232 90.8073 22.4882C90.8073 23.8282 92.0044 24.6912 93.3501 24.6912C94.3791 24.6912 94.9469 24.2382 95.3036 23.7112H95.3558V24.4842H96.8327V20.6482C96.8327 18.8752 95.4757 17.8832 93.7181 17.8832ZM93.5336 23.3632C93.0334 23.3632 92.3365 23.1212 92.3365 22.5162C92.3365 21.7422 93.2056 21.4452 93.9579 21.4452C94.6312 21.4452 94.9469 21.5902 95.3558 21.7812C95.2359 22.7072 94.4191 23.3632 93.5336 23.3632ZM102.213 18.1022L100.456 22.4372H100.403L98.5863 18.1022H96.9372L99.6676 24.1602L98.1097 27.5312H99.7075L103.915 18.1022H102.213ZM88.4296 24.5002H89.9628V14.5002H88.4296V24.5002Z" fill="white"/>
</svg>
