<svg width="114" height="33" viewBox="0 0 114 33" fill="none" xmlns="http://www.w3.org/2000/svg">
<path d="M113.751 29.2923C113.751 31.0645 112.287 32.5 110.476 32.5H3.27989C1.4695 32.5 0 31.0645 0 29.2923V3.71189C0 1.94054 1.4695 0.5 3.27989 0.5H110.475C112.287 0.5 113.75 1.94054 113.75 3.71189L113.751 29.2923Z" fill="black"/>
<path d="M25.0313 16.3202C25.0066 13.6407 27.2799 12.3371 27.3839 12.2764C26.0964 10.4449 24.1008 10.1947 23.3996 10.1747C21.7236 10.0026 20.0978 11.1533 19.2441 11.1533C18.3732 11.1533 17.0585 10.1914 15.6415 10.2196C13.8181 10.2471 12.1122 11.2771 11.1767 12.8767C9.24589 16.1382 10.6859 20.931 12.5357 23.5673C13.4611 24.8584 14.5423 26.3 15.9576 26.2493C17.3422 26.1936 17.8594 25.388 19.5304 25.388C21.1859 25.388 21.6716 26.2493 23.115 26.2169C24.601 26.1936 25.5366 24.92 26.4296 23.6172C27.4989 22.1374 27.9283 20.68 27.9454 20.6051C27.9104 20.5935 25.0594 19.5318 25.0313 16.3202Z" fill="white"/>
<path d="M22.3047 8.4405C23.0494 7.53181 23.5589 6.29556 23.4175 5.04102C22.3396 5.08757 20.9917 5.76847 20.2154 6.6572C19.5286 7.44036 18.9152 8.724 19.0736 9.93115C20.2844 10.0193 21.5276 9.33505 22.3047 8.4405Z" fill="white"/>
<path d="M41.1552 8.1936C41.1552 9.17212 40.8544 9.90872 40.2537 10.4034C39.6973 10.8598 38.9066 11.0884 37.8824 11.0884C37.3746 11.0884 36.94 11.0668 36.5762 11.0236V5.67703C37.0508 5.60221 37.562 5.56396 38.1142 5.56396C39.0898 5.56396 39.8251 5.77098 40.321 6.185C40.8766 6.65306 41.1552 7.32232 41.1552 8.1936ZM40.2137 8.21771C40.2137 7.58337 40.0415 7.09702 39.6973 6.75782C39.3531 6.41945 38.8503 6.24985 38.1883 6.24985C37.9071 6.24985 37.6677 6.26814 37.4691 6.30638V10.371C37.5791 10.3876 37.7801 10.3951 38.0724 10.3951C38.7558 10.3951 39.2832 10.2097 39.6547 9.83888C40.0262 9.46809 40.2137 8.9277 40.2137 8.21771Z" fill="white"/>
<path d="M46.1469 9.04795C46.1469 9.65069 45.9705 10.1445 45.6178 10.5319C45.248 10.9302 44.758 11.1289 44.1462 11.1289C43.5566 11.1289 43.0871 10.9385 42.7369 10.5561C42.3876 10.1745 42.2129 9.69309 42.2129 9.1128C42.2129 8.50589 42.3927 8.0079 42.754 7.62131C43.1152 7.23473 43.6009 7.04102 44.2127 7.04102C44.8023 7.04102 45.2761 7.2314 45.6348 7.613C45.9756 7.98379 46.1469 8.46266 46.1469 9.04795ZM45.2207 9.07622C45.2207 8.71457 45.1406 8.40447 44.9813 8.14591C44.7938 7.83331 44.5271 7.67702 44.1803 7.67702C43.8216 7.67702 43.5489 7.83331 43.3615 8.14591C43.2013 8.40447 43.122 8.71956 43.122 9.09201C43.122 9.45366 43.2021 9.76376 43.3615 10.0223C43.5549 10.3349 43.8242 10.4912 44.1718 10.4912C44.5126 10.4912 44.7802 10.3324 44.9727 10.014C45.138 9.75046 45.2207 9.43786 45.2207 9.07622Z" fill="white"/>
<path d="M52.8411 7.12109L51.5843 11.0402H50.7663L50.2457 9.33836C50.1136 8.91353 50.0063 8.4912 49.9228 8.07218H49.9066C49.829 8.50284 49.7217 8.92434 49.5837 9.33836L49.0307 11.0402H48.2033L47.0215 7.12109H47.9392L48.3933 8.9842C48.5032 9.42483 48.5935 9.84467 48.666 10.2421H48.6822C48.7486 9.91451 48.8585 9.49716 49.0136 8.99251L49.5837 7.12193H50.3113L50.8575 8.95261C50.9896 9.39905 51.0969 9.82887 51.1796 10.2429H51.2043C51.2648 9.83968 51.356 9.40986 51.4769 8.95261L51.9643 7.12193H52.8411V7.12109Z" fill="white"/>
<path d="M57.4719 11.04H56.5789V8.79527C56.5789 8.10356 56.3097 7.75771 55.7695 7.75771C55.5045 7.75771 55.2906 7.85249 55.1245 8.04287C54.96 8.23326 54.8765 8.45773 54.8765 8.71462V11.0391H53.9835V8.24074C53.9835 7.89655 53.9725 7.52326 53.9512 7.11922H54.7359L54.7777 7.73194H54.8024C54.9063 7.54156 55.0614 7.38443 55.2651 7.25889C55.507 7.11257 55.778 7.03857 56.0745 7.03857C56.4494 7.03857 56.7613 7.15663 57.0092 7.39357C57.3177 7.68372 57.4719 8.11687 57.4719 8.69218V11.04Z" fill="white"/>
<path d="M59.9331 11.0401H59.041V5.32275H59.9331V11.0401Z" fill="white"/>
<path d="M65.1899 9.04795C65.1899 9.65069 65.0135 10.1445 64.6607 10.5319C64.2909 10.9302 63.8001 11.1289 63.1892 11.1289C62.5987 11.1289 62.1292 10.9385 61.7799 10.5561C61.4305 10.1745 61.2559 9.69309 61.2559 9.1128C61.2559 8.50589 61.4356 8.0079 61.7969 7.62131C62.1582 7.23473 62.6439 7.04102 63.2548 7.04102C63.8453 7.04102 64.3182 7.2314 64.6778 7.613C65.0186 7.98379 65.1899 8.46266 65.1899 9.04795ZM64.2628 9.07622C64.2628 8.71457 64.1827 8.40447 64.0234 8.14591C63.8368 7.83331 63.5692 7.67702 63.2233 7.67702C62.8637 7.67702 62.5911 7.83331 62.4044 8.14591C62.2443 8.40447 62.165 8.71956 62.165 9.09201C62.165 9.45366 62.2451 9.76376 62.4044 10.0223C62.5979 10.3349 62.8671 10.4912 63.2148 10.4912C63.5556 10.4912 63.8223 10.3324 64.0149 10.014C64.181 9.75046 64.2628 9.43786 64.2628 9.07622Z" fill="white"/>
<path d="M69.5123 11.0399H68.7105L68.6441 10.5885H68.6194C68.345 10.9485 67.9539 11.1289 67.4461 11.1289C67.0669 11.1289 66.7602 11.01 66.5293 10.7739C66.3197 10.5594 66.2148 10.2925 66.2148 9.97576C66.2148 9.49689 66.4193 9.13192 66.8309 8.87918C67.2416 8.62644 67.8193 8.50257 68.5631 8.50839V8.43523C68.5631 7.91894 68.2854 7.66122 67.729 7.66122C67.3328 7.66122 66.9834 7.75849 66.6818 7.95137L66.5003 7.37938C66.8735 7.15408 67.3345 7.04102 67.8781 7.04102C68.9278 7.04102 69.4544 7.58141 69.4544 8.66219V10.1055C69.4544 10.497 69.474 10.8088 69.5123 11.0399ZM68.5853 9.69309V9.08869C67.6003 9.07206 67.1078 9.3356 67.1078 9.87849C67.1078 10.083 67.164 10.236 67.2791 10.3382C67.3941 10.4405 67.5407 10.4912 67.7153 10.4912C67.9113 10.4912 68.0945 10.4305 68.2615 10.31C68.4294 10.1886 68.5325 10.0348 68.5708 9.84607C68.5802 9.80367 68.5853 9.75212 68.5853 9.69309Z" fill="white"/>
<path d="M74.5863 11.0401H73.7938L73.7521 10.4108H73.7274C73.4743 10.8896 73.0432 11.1291 72.4373 11.1291C71.9534 11.1291 71.5503 10.9437 71.2308 10.5729C70.9113 10.2021 70.752 9.72071 70.752 9.12961C70.752 8.49527 70.9249 7.98148 71.2726 7.58907C71.6091 7.22327 72.0215 7.04037 72.5123 7.04037C73.0517 7.04037 73.4291 7.21745 73.6439 7.57245H73.6609V5.32275H74.5547V9.98426C74.5547 10.3659 74.565 10.7175 74.5863 11.0401ZM73.6609 9.38733V8.73388C73.6609 8.62081 73.6524 8.52936 73.6362 8.45952C73.5859 8.25002 73.4777 8.07377 73.3133 7.9316C73.1471 7.78944 72.9469 7.71794 72.716 7.71794C72.3828 7.71794 72.1221 7.8468 71.9304 8.10536C71.7403 8.36391 71.6441 8.69397 71.6441 9.09718C71.6441 9.4846 71.7352 9.79886 71.9184 10.0408C72.1118 10.2985 72.3726 10.4274 72.6989 10.4274C72.992 10.4274 73.2264 10.3201 73.4044 10.1048C73.5766 9.90611 73.6609 9.66668 73.6609 9.38733Z" fill="white"/>
<path d="M82.2231 9.04795C82.2231 9.65069 82.0467 10.1445 81.6939 10.5319C81.3241 10.9302 80.835 11.1289 80.2224 11.1289C79.6336 11.1289 79.1641 10.9385 78.8131 10.5561C78.4637 10.1745 78.2891 9.69309 78.2891 9.1128C78.2891 8.50589 78.4689 8.0079 78.8301 7.62131C79.1914 7.23473 79.6771 7.04102 80.2897 7.04102C80.8785 7.04102 81.3531 7.2314 81.711 7.613C82.0518 7.98379 82.2231 8.46266 82.2231 9.04795ZM81.2977 9.07622C81.2977 8.71457 81.2176 8.40447 81.0583 8.14591C80.87 7.83331 80.6041 7.67702 80.2565 7.67702C79.8986 7.67702 79.626 7.83331 79.4376 8.14591C79.2775 8.40447 79.1982 8.71956 79.1982 9.09201C79.1982 9.45366 79.2783 9.76376 79.4376 10.0223C79.6311 10.3349 79.9003 10.4912 80.248 10.4912C80.5888 10.4912 80.8572 10.3324 81.0498 10.014C81.2142 9.75046 81.2977 9.43786 81.2977 9.07622Z" fill="white"/>
<path d="M87.0238 11.04H86.1317V8.79527C86.1317 8.10356 85.8624 7.75771 85.3214 7.75771C85.0564 7.75771 84.8425 7.85249 84.6772 8.04287C84.5119 8.23326 84.4292 8.45773 84.4292 8.71462V11.0391H83.5354V8.24074C83.5354 7.89655 83.5252 7.52326 83.5039 7.11922H84.2878L84.3296 7.73194H84.3543C84.4591 7.54156 84.6142 7.38443 84.8169 7.25889C85.0598 7.11257 85.3299 7.03857 85.6273 7.03857C86.0013 7.03857 86.3132 7.15663 86.5611 7.39357C86.8704 7.68372 87.0238 8.11687 87.0238 8.69218V11.04Z" fill="white"/>
<path d="M93.0342 7.77319H92.0509V9.67703C92.0509 10.1609 92.2256 10.4028 92.5715 10.4028C92.7317 10.4028 92.8646 10.3895 92.9694 10.3621L92.9924 11.023C92.816 11.0879 92.5843 11.1203 92.2988 11.1203C91.9461 11.1203 91.6717 11.0155 91.4732 10.806C91.2738 10.5965 91.175 10.244 91.175 9.74936V7.77319H90.5879V7.12056H91.175V6.40226L92.05 6.14453V7.11973H93.0333V7.77319H93.0342Z" fill="white"/>
<path d="M97.7618 11.0401H96.868V8.81202C96.868 8.10951 96.5987 7.75784 96.0594 7.75784C95.6453 7.75784 95.3624 7.96153 95.2073 8.3689C95.1809 8.45453 95.1656 8.55929 95.1656 8.68233V11.0393H94.2734V5.32275H95.1656V7.68468H95.1826C95.4638 7.25486 95.8668 7.04037 96.3891 7.04037C96.7589 7.04037 97.0648 7.15842 97.3077 7.39537C97.6102 7.6905 97.7618 8.12947 97.7618 8.70977V11.0401Z" fill="white"/>
<path d="M102.637 8.89513C102.637 9.05143 102.625 9.18279 102.604 9.29004H99.9261C99.9381 9.67746 100.066 9.97259 100.314 10.1771C100.54 10.36 100.833 10.4515 101.191 10.4515C101.587 10.4515 101.948 10.3899 102.274 10.2661L102.413 10.8713C102.032 11.0326 101.584 11.1132 101.065 11.1132C100.443 11.1132 99.9534 10.9345 99.5989 10.577C99.2428 10.2195 99.0664 9.73981 99.0664 9.1379C99.0664 8.54679 99.2309 8.05462 99.5623 7.66221C99.9083 7.2432 100.376 7.03369 100.967 7.03369C101.544 7.03369 101.983 7.2432 102.28 7.66221C102.519 7.99476 102.637 8.40629 102.637 8.89513ZM101.785 8.66983C101.792 8.41128 101.733 8.18847 101.612 8.00058C101.457 7.75865 101.221 7.63727 100.902 7.63727C100.61 7.63727 100.373 7.75532 100.191 7.99226C100.043 8.18099 99.9551 8.40629 99.9261 8.66983H101.785Z" fill="white"/>
<path d="M45.071 26.0639H43.136L42.076 22.8141H38.3917L37.382 26.0639H35.498L39.1483 15H41.4029L45.071 26.0639ZM41.7565 21.4506L40.7979 18.5616C40.6965 18.2665 40.5065 17.5714 40.2262 16.4773H40.1921C40.0805 16.9479 39.9007 17.6429 39.6536 18.5616L38.712 21.4506H41.7565Z" fill="white"/>
<path d="M54.4579 21.977C54.4579 23.3338 54.0822 24.4062 53.3307 25.1935C52.6575 25.8944 51.8216 26.2444 50.8239 26.2444C49.7469 26.2444 48.9732 25.867 48.502 25.1121H48.4679V29.3147H46.6513V20.7124C46.6513 19.8595 46.6283 18.984 46.584 18.0861H48.1816L48.283 19.3507H48.3171C48.9229 18.3979 49.8423 17.9224 51.0761 17.9224C52.0406 17.9224 52.8458 18.294 53.49 19.0381C54.1359 19.783 54.4579 20.7623 54.4579 21.977ZM52.6073 22.0418C52.6073 21.2653 52.4283 20.6252 52.0687 20.1213C51.6759 19.5959 51.1485 19.3332 50.4873 19.3332C50.0391 19.3332 49.6318 19.4795 49.268 19.768C48.9033 20.059 48.6647 20.4389 48.5531 20.9095C48.4969 21.129 48.4688 21.3085 48.4688 21.4499V22.7801C48.4688 23.3604 48.6511 23.85 49.0158 24.2499C49.3805 24.6498 49.8542 24.8494 50.437 24.8494C51.1212 24.8494 51.6538 24.5916 52.0347 24.0778C52.4164 23.5632 52.6073 22.8848 52.6073 22.0418Z" fill="white"/>
<path d="M63.8634 21.977C63.8634 23.3338 63.4876 24.4062 62.7352 25.1935C62.0629 25.8944 61.2271 26.2444 60.2293 26.2444C59.1523 26.2444 58.3786 25.867 57.9082 25.1121H57.8742V29.3147H56.0575V20.7124C56.0575 19.8595 56.0345 18.984 55.9902 18.0861H57.5879L57.6893 19.3507H57.7233C58.3283 18.3979 59.2477 17.9224 60.4823 17.9224C61.446 17.9224 62.2512 18.294 62.8971 19.0381C63.5404 19.783 63.8634 20.7623 63.8634 21.977ZM62.0127 22.0418C62.0127 21.2653 61.8329 20.6252 61.4733 20.1213C61.0805 19.5959 60.5548 19.3332 59.8927 19.3332C59.4437 19.3332 59.0372 19.4795 58.6726 19.768C58.3079 20.059 58.0701 20.4389 57.9585 20.9095C57.9031 21.129 57.8742 21.3085 57.8742 21.4499V22.7801C57.8742 23.3604 58.0565 23.85 58.4195 24.2499C58.7842 24.649 59.2579 24.8494 59.8424 24.8494C60.5267 24.8494 61.0592 24.5916 61.4401 24.0778C61.8218 23.5632 62.0127 22.8848 62.0127 22.0418Z" fill="white"/>
<path d="M74.3765 22.9612C74.3765 23.9023 74.0416 24.668 73.3693 25.2591C72.6306 25.9051 71.6021 26.2277 70.2806 26.2277C69.0604 26.2277 68.0822 25.9982 67.3418 25.5385L67.7627 24.0611C68.5603 24.5317 69.4353 24.7678 70.3888 24.7678C71.073 24.7678 71.6055 24.6165 71.9881 24.3155C72.369 24.0146 72.559 23.6105 72.559 23.1067C72.559 22.6578 72.4022 22.2795 72.0878 21.9727C71.7751 21.666 71.2528 21.3808 70.5234 21.1172C68.5381 20.3948 67.5463 19.3364 67.5463 17.9447C67.5463 17.0352 67.8939 16.2895 68.5901 15.7092C69.2837 15.128 70.209 14.8379 71.3661 14.8379C72.398 14.8379 73.2552 15.0133 73.9394 15.3633L73.4852 16.8082C72.8462 16.469 72.1236 16.2994 71.315 16.2994C70.6759 16.2994 70.1766 16.4532 69.8188 16.7592C69.5163 17.0327 69.3646 17.3661 69.3646 17.761C69.3646 18.1983 69.5376 18.5599 69.8852 18.8443C70.1877 19.107 70.7373 19.3913 71.5348 19.6981C72.5104 20.0814 73.227 20.5295 73.688 21.0433C74.1473 21.5554 74.3765 22.1964 74.3765 22.9612Z" fill="white"/>
<path d="M80.3838 19.4166H78.3814V23.29C78.3814 24.2752 78.7342 24.7674 79.4414 24.7674C79.766 24.7674 80.0353 24.7399 80.2483 24.685L80.2986 26.031C79.9407 26.1616 79.4695 26.2272 78.8858 26.2272C78.1684 26.2272 77.6077 26.0136 77.203 25.5871C76.8 25.1598 76.5972 24.4431 76.5972 23.4363V19.415H75.4043V18.0848H76.5972V16.6241L78.3814 16.0986V18.0848H80.3838V19.4166Z" fill="white"/>
<path d="M89.4168 22.009C89.4168 23.2353 89.0572 24.2421 88.3398 25.0294C87.5874 25.84 86.5888 26.2441 85.3439 26.2441C84.1442 26.2441 83.189 25.8558 82.4767 25.0793C81.7644 24.3028 81.4082 23.3226 81.4082 22.1412C81.4082 20.905 81.7746 19.8924 82.5099 19.1051C83.2436 18.3169 84.2337 17.9229 85.4785 17.9229C86.6782 17.9229 87.6436 18.3111 88.3722 19.0884C89.0691 19.8425 89.4168 20.816 89.4168 22.009ZM87.532 22.0664C87.532 21.3306 87.371 20.6996 87.0446 20.1734C86.6638 19.5365 86.1193 19.219 85.4138 19.219C84.6835 19.219 84.1289 19.5374 83.748 20.1734C83.4216 20.7005 83.2606 21.3415 83.2606 22.0997C83.2606 22.8354 83.4216 23.4664 83.748 23.9919C84.1408 24.6287 84.6895 24.9463 85.3976 24.9463C86.0912 24.9463 86.6356 24.6221 87.0284 23.9752C87.3633 23.439 87.532 22.8013 87.532 22.0664Z" fill="white"/>
<path d="M95.3218 19.645C95.142 19.6125 94.9503 19.5959 94.7492 19.5959C94.1102 19.5959 93.616 19.8312 93.2683 20.3026C92.9658 20.7183 92.8142 21.2437 92.8142 21.878V26.064H90.9984L91.0154 20.5986C91.0154 19.6791 90.9924 18.8419 90.9473 18.087H92.5296L92.596 19.6134H92.6463C92.838 19.0888 93.1405 18.6664 93.5546 18.3497C93.9593 18.0645 94.3965 17.9224 94.8677 17.9224C95.0355 17.9224 95.1872 17.934 95.3218 17.9548V19.645Z" fill="white"/>
<path d="M103.448 21.6975C103.448 22.015 103.427 22.2827 103.382 22.5014H97.9318C97.9531 23.2895 98.2164 23.8923 98.7225 24.308C99.1818 24.6796 99.7757 24.8658 100.505 24.8658C101.312 24.8658 102.048 24.7403 102.71 24.4884L102.995 25.7188C102.221 26.048 101.308 26.2118 100.254 26.2118C98.9858 26.2118 97.9906 25.8477 97.2663 25.1202C96.5438 24.3928 96.1816 23.4159 96.1816 22.1905C96.1816 20.9875 96.5182 19.9857 97.1922 19.1867C97.8977 18.3337 98.8512 17.9072 100.051 17.9072C101.229 17.9072 102.121 18.3337 102.727 19.1867C103.207 19.8643 103.448 20.7023 103.448 21.6975ZM101.716 21.2377C101.728 20.7123 101.609 20.2583 101.363 19.8751C101.049 19.3821 100.566 19.136 99.9154 19.136C99.3215 19.136 98.8384 19.3763 98.4694 19.8585C98.167 20.2417 97.9872 20.7015 97.9318 21.2369H101.716V21.2377Z" fill="white"/>
</svg>
