<svg width="48" height="48" viewBox="0 0 48 48" fill="none" xmlns="http://www.w3.org/2000/svg">
<path fill-rule="evenodd" clip-rule="evenodd" d="M12.64 10.6915C11.4894 10.6915 10.5566 11.6243 10.5566 12.7749V16.4999H37.4433V12.7749C37.4433 11.6243 36.5106 10.6915 35.36 10.6915H12.64ZM37.4433 17.9999H24.75V35.5058H32.3166V37.3084H33.8166V35.5058H35.36C36.5106 35.5058 37.4433 34.5731 37.4433 33.4225V17.9999ZM23.25 17.9999V35.5058H15.6833V37.3084H14.1833V35.5058H12.64C11.4894 35.5058 10.5566 34.5731 10.5566 33.4225V17.9999H23.25ZM19.6233 25.9428V22.0571H21.1233V25.9428H19.6233ZM26.8766 22.0571V25.9428H28.3766V22.0571H26.8766Z" fill="#005924"/>
</svg>
