<svg width="48" height="48" viewBox="0 0 48 48" fill="none" xmlns="http://www.w3.org/2000/svg">
<path d="M26.8766 26.984V23.0983H28.3766V26.984H26.8766Z" fill="#007630"/>
<path d="M19.6233 23.0983V26.984H21.1233V23.0983H19.6233Z" fill="#007630"/>
<path fill-rule="evenodd" clip-rule="evenodd" d="M10.5566 12.7749C10.5566 11.6243 11.4894 10.6915 12.64 10.6915H35.36C36.5106 10.6915 37.4433 11.6243 37.4433 12.7749V33.4225C37.4433 34.5731 36.5106 35.5058 35.36 35.5058H33.8166V37.3084H32.3166V35.5058H15.6833V37.3084H14.1833V35.5058H12.64C11.4894 35.5058 10.5566 34.5731 10.5566 33.4225V12.7749ZM12.64 12.1915C12.3178 12.1915 12.0566 12.4527 12.0566 12.7749V16.5201H35.9433V12.7749C35.9433 12.4527 35.6821 12.1915 35.36 12.1915H12.64ZM35.9433 18.0201H24.75V34.0058H35.36C35.6821 34.0058 35.9433 33.7446 35.9433 33.4225V18.0201ZM23.25 18.0201H12.0566V33.4225C12.0566 33.7446 12.3178 34.0058 12.64 34.0058H23.25V18.0201Z" fill="#007630"/>
</svg>
