<svg width="48" height="48" viewBox="0 0 48 48" fill="none" xmlns="http://www.w3.org/2000/svg">
<path d="M16.9239 12.1166L11.3743 10.0138L11.9058 8.61108L17.4554 10.7139L16.9239 12.1166Z" fill="#188040"/>
<path d="M19.89 8.63892H28.39V14.5431C27.0518 14.1253 25.6262 13.9 24.1501 13.9C22.6665 13.9 21.234 14.1276 19.89 14.5495V8.63892Z" fill="#188040"/>
<path d="M19.89 16.1294V16.1312C15.0787 17.8734 11.6401 22.4893 11.64 27.9096C12.1023 27.6569 12.6095 27.4151 13.1626 27.1981C13.5129 21.6898 17.9012 17.2845 23.39 16.9141L23.3899 28.9807C23.098 28.8569 22.8065 28.7364 22.5092 28.6211C21.2284 28.124 19.9074 27.75 18.3238 27.75C17.1971 27.75 16.1809 27.8841 15.2707 28.1037C15.0244 28.1647 14.7917 28.2288 14.5731 28.2943C13.4571 28.6356 12.5197 29.101 11.7506 29.5824C12.3126 33.7995 14.9702 37.3527 18.64 39.1567L29.14 39.3889C33.2375 37.5957 36.1896 33.6657 36.5928 29.0051C34.6167 29.9775 32.921 30.498 31.4068 30.6967C29.4875 30.9486 27.9059 30.6773 26.4713 30.2136C25.9243 30.0369 25.3991 29.8322 24.8899 29.6208L24.89 16.9141C30.6133 17.3003 35.14 22.0735 35.14 27.9098C35.14 27.95 35.1398 27.9901 35.1394 28.0302C35.6121 27.8199 36.1069 27.5788 36.6256 27.3039C36.3803 22.1474 33.0211 17.8081 28.39 16.1312V16.1112L28.3831 16.1198C27.0638 15.6542 25.6379 15.4 24.1501 15.4C22.652 15.4 21.2168 15.6577 19.89 16.1294Z" fill="#188040"/>
<path d="M16.9239 12.7477L11.3743 14.8505L11.9058 16.2532L17.4554 14.1504L16.9239 12.7477Z" fill="#188040"/>
</svg>
