<svg width="48" height="48" viewBox="0 0 48 48" fill="none" xmlns="http://www.w3.org/2000/svg">
<path fill-rule="evenodd" clip-rule="evenodd" d="M19.8829 8.63892H28.3829V16.1312C33.1943 17.8734 36.6329 22.4894 36.6329 27.9098C36.6329 33.0442 33.5477 37.4568 29.1329 39.3889L18.6329 39.1567C14.487 37.1186 11.6329 32.8481 11.6329 27.9098C11.6329 22.4894 15.0715 17.8734 19.8829 16.1312V8.63892ZM26.8829 10.1389V15.6929C25.9981 15.4939 25.0777 15.3889 24.1329 15.3889C23.1881 15.3889 22.2678 15.4939 21.3829 15.6929V10.1389H26.8829ZM23.3829 16.9141C17.6596 17.3003 13.1329 22.0735 13.1329 27.9098C13.1329 28.2081 13.1448 28.5036 13.168 28.7958C13.4386 28.6809 13.7659 28.5538 14.1458 28.4272C15.3334 28.0314 17.039 27.6389 19.1329 27.6389C20.7889 27.639 22.1361 28.1139 23.3829 28.6633V16.9141ZM23.3829 30.3108V35.3889H24.8829V30.9907C26.3098 31.6013 27.9566 32.1389 30.1329 32.1389C31.7936 32.1389 33.2612 31.7362 34.306 31.34C34.419 31.2972 34.5273 31.2543 34.6307 31.2119C33.7075 34.1614 31.5801 36.5777 28.8238 37.8817L19.0085 37.6647C16.201 36.1809 14.1135 33.5181 13.4002 30.3354L13.4071 30.3321C13.6796 30.203 14.089 30.0272 14.6201 29.8502C15.6824 29.4962 17.2269 29.1389 19.1329 29.1389C20.7316 29.139 21.9714 29.6611 23.3829 30.3108ZM24.8829 29.3504V16.9141C30.6062 17.3003 35.1329 22.0735 35.1329 27.9098C35.1329 28.403 35.1006 28.8886 35.0379 29.3647C34.9889 29.3913 34.9313 29.4218 34.8655 29.4555C34.6117 29.5855 34.239 29.7612 33.7742 29.9375C32.8405 30.2915 31.5581 30.6389 30.1329 30.6389C27.9525 30.6389 26.3879 30.034 24.8829 29.3504Z" fill="#007630"/>
<path fill-rule="evenodd" clip-rule="evenodd" d="M16.9168 12.1166L11.3672 10.0138L11.8987 8.61108L17.4483 10.7139L16.9168 12.1166Z" fill="#007630"/>
<path fill-rule="evenodd" clip-rule="evenodd" d="M16.9168 12.7477L11.3672 14.8505L11.8987 16.2532L17.4483 14.1504L16.9168 12.7477Z" fill="#007630"/>
</svg>
