<svg width="48" height="48" viewBox="0 0 48 48" fill="none" xmlns="http://www.w3.org/2000/svg">
<path fill-rule="evenodd" clip-rule="evenodd" d="M38 24C38 31.732 31.732 38 24 38C16.268 38 10 31.732 10 24C10 16.268 16.268 10 24 10C31.732 10 38 16.268 38 24ZM19.25 24C19.25 24.6904 18.6904 25.25 18 25.25C17.3096 25.25 16.75 24.6904 16.75 24C16.75 23.3096 17.3096 22.75 18 22.75C18.6904 22.75 19.25 23.3096 19.25 24ZM25.2533 24C25.2533 24.6904 24.6937 25.25 24.0033 25.25C23.313 25.25 22.7533 24.6904 22.7533 24C22.7533 23.3096 23.313 22.75 24.0033 22.75C24.6937 22.75 25.2533 23.3096 25.2533 24ZM30.0067 25.25C30.697 25.25 31.2567 24.6904 31.2567 24C31.2567 23.3096 30.697 22.75 30.0067 22.75C29.3163 22.75 28.7567 23.3096 28.7567 24C28.7567 24.6904 29.3163 25.25 30.0067 25.25Z" fill="#188040"/>
</svg>
