<svg width="48" height="48" viewBox="0 0 48 48" fill="none" xmlns="http://www.w3.org/2000/svg">
<path fill-rule="evenodd" clip-rule="evenodd" d="M24 36.5C30.9036 36.5 36.5 30.9036 36.5 24C36.5 17.0964 30.9036 11.5 24 11.5C17.0964 11.5 11.5 17.0964 11.5 24C11.5 30.9036 17.0964 36.5 24 36.5ZM24 38C31.732 38 38 31.732 38 24C38 16.268 31.732 10 24 10C16.268 10 10 16.268 10 24C10 31.732 16.268 38 24 38Z" fill="#007630"/>
<path d="M19.2467 24C19.2467 24.6904 18.687 25.25 17.9967 25.25C17.3063 25.25 16.7467 24.6904 16.7467 24C16.7467 23.3096 17.3063 22.75 17.9967 22.75C18.687 22.75 19.2467 23.3096 19.2467 24Z" fill="#007630"/>
<path d="M25.25 24C25.25 24.6904 24.6904 25.25 24 25.25C23.3096 25.25 22.75 24.6904 22.75 24C22.75 23.3096 23.3096 22.75 24 22.75C24.6904 22.75 25.25 23.3096 25.25 24Z" fill="#007630"/>
<path d="M31.2533 24C31.2533 24.6904 30.6937 25.25 30.0033 25.25C29.313 25.25 28.7533 24.6904 28.7533 24C28.7533 23.3096 29.313 22.75 30.0033 22.75C30.6937 22.75 31.2533 23.3096 31.2533 24Z" fill="#007630"/>
</svg>
