<svg width="48" height="48" viewBox="0 0 48 48" fill="none" xmlns="http://www.w3.org/2000/svg">
<path fill-rule="evenodd" clip-rule="evenodd" d="M15.3328 9.72058C14.1841 9.72058 13.2528 10.6518 13.2528 11.8006V38.2794L15.9915 36.7843L17.9803 37.87L19.969 36.7843L21.9578 37.87L23.9465 36.7843L25.9352 37.87L27.924 36.7843L29.9127 37.87L31.9014 36.7843L34.6348 38.2765L34.7471 11.8094C34.752 10.6572 33.8194 9.72058 32.6672 9.72058H15.3328ZM22.7081 15.56H17V14.06H22.7081V15.56ZM31 19.8112H17V18.3112H31V19.8112ZM17 23.3112H31V21.8112H17V23.3112ZM17 26.8122V33.0066H18.5V26.8122H17ZM29.5 33.0066V26.8122H31V33.0066H29.5ZM26.5 26.8122V33.0066H28V26.8122H26.5ZM23.646 33.0066V26.8122H25.146V33.0066H23.646ZM19.854 26.8122V33.0066H21.354V26.8122H19.854ZM21.75 33.0066V26.8122H23.25V33.0066H21.75Z" fill="#005924"/>
</svg>
