<svg width="48" height="48" viewBox="0 0 48 48" fill="none" xmlns="http://www.w3.org/2000/svg">
<path fill-rule="evenodd" clip-rule="evenodd" d="M13.2528 11.8006C13.2528 10.6518 14.1841 9.72058 15.3328 9.72058H32.6672C33.8194 9.72058 34.752 10.6572 34.7471 11.8094L34.6348 38.2765L31.9014 36.7843L29.9127 37.87L27.924 36.7843L25.9352 37.87L23.9465 36.7843L21.9578 37.87L19.969 36.7843L17.9803 37.87L15.9915 36.7843L13.2528 38.2794V11.8006ZM15.3328 11.2206C15.0125 11.2206 14.7528 11.4803 14.7528 11.8006V35.7516L15.9915 35.0753L17.9803 36.161L19.969 35.0753L21.9578 36.161L23.9465 35.0753L25.9352 36.161L27.924 35.0753L29.9127 36.161L31.9014 35.0753L33.1455 35.7545L33.2471 11.803C33.2485 11.4818 32.9884 11.2206 32.6672 11.2206H15.3328Z" fill="#007630"/>
<path fill-rule="evenodd" clip-rule="evenodd" d="M22.7109 15.5621H17.0028V14.0621H22.7109V15.5621Z" fill="#007630"/>
<path fill-rule="evenodd" clip-rule="evenodd" d="M31.0028 19.8134H17.0028V18.3134H31.0028V19.8134Z" fill="#007630"/>
<path fill-rule="evenodd" clip-rule="evenodd" d="M31.0028 23.3134H17.0028V21.8134H31.0028V23.3134Z" fill="#007630"/>
<path d="M17.0028 26.8143V33.0087H18.5028V26.8143H17.0028Z" fill="#007630"/>
<path d="M29.5028 26.8143V33.0087H31.0028V26.8143H29.5028Z" fill="#007630"/>
<path d="M26.5028 26.8143V33.0087H28.0028V26.8143H26.5028Z" fill="#007630"/>
<path d="M23.6488 26.8143V33.0087H25.1488V26.8143H23.6488Z" fill="#007630"/>
<path d="M19.8568 26.8143V33.0087H21.3568V26.8143H19.8568Z" fill="#007630"/>
<path d="M21.7528 26.8143V33.0087H23.2528V26.8143H21.7528Z" fill="#007630"/>
</svg>
