<svg width="48" height="48" viewBox="0 0 48 48" fill="none" xmlns="http://www.w3.org/2000/svg">
<path fill-rule="evenodd" clip-rule="evenodd" d="M16.0465 30.7278L16.3527 30.605C16.5097 30.5589 16.6758 30.5341 16.8477 30.5341H34.3007V34.0341H16.8477C15.9276 34.0341 15.1734 33.3241 15.103 32.4222L15.1805 31.7503C15.3227 31.3059 15.6377 30.9387 16.0465 30.7278ZM30.3071 17.5105L30.5715 24.9041L20.2709 29.0341H34.2179L33.0737 18.1335L33.0739 18.0927C33.0753 17.7671 32.8085 17.5042 32.4829 17.5104L32.4758 17.5105H30.3071Z" fill="#005924"/>
<path fill-rule="evenodd" clip-rule="evenodd" d="M16.8477 35.5394C15.8812 35.5394 15.0977 36.3229 15.0977 37.2894C15.0977 38.2559 15.8812 39.0394 16.8477 39.0394H34.3007V35.5394H16.8477Z" fill="#005924"/>
<path fill-rule="evenodd" clip-rule="evenodd" d="M14.103 18.1057L14.0966 18.137L13.6992 32.0252C13.8652 31.4043 14.4152 29.8207 16.1352 29.3758C17.3912 29.0508 21.7968 27.1456 25.4697 25.5572C26.8268 24.9704 28.0838 24.4268 29.045 24.0221L28.8653 16.0547L28.6657 10.4718C28.6631 9.98779 28.5327 9.26035 27.8033 9.02269C27.4995 8.92368 27.1966 8.95803 26.952 9.02045C26.7009 9.08455 26.4407 9.19654 26.1808 9.33215L26.1588 9.34366L15.9412 15.9294C15.0256 16.4296 14.3158 17.0559 14.103 18.1057ZM17.7949 19.671L23.0299 16.6102L23.0299 14.8815L17.7949 17.9799V19.671Z" fill="#005924"/>
</svg>
