<svg width="48" height="48" viewBox="0 0 48 48" fill="none" xmlns="http://www.w3.org/2000/svg">
<path fill-rule="evenodd" clip-rule="evenodd" d="M27.5849 9.87879L17.1675 16.2267L17.1511 16.2356C16.4124 16.6368 16.1478 16.9627 16.0562 17.3728L14.7588 28.6173C14.887 28.5566 15.0199 28.504 15.1566 28.4602L28.3356 23.1762L27.8556 9.75389C27.7808 9.78343 27.6911 9.82411 27.5849 9.87879ZM15.3472 29.9999L15.6535 29.8771C15.8105 29.8309 15.9766 29.8061 16.1484 29.8061H33.6015V33.3061H16.1484C15.2284 33.3061 14.4742 32.5962 14.4038 31.6942L14.4813 31.0224C14.6235 30.5779 14.9385 30.2107 15.3472 29.9999ZM13.0057 30.725L14.5738 17.1342L14.5801 17.1029C14.7929 16.0531 15.5027 15.4268 16.4184 14.9266L26.8477 8.57145L26.8698 8.55993C27.1297 8.42433 27.3898 8.31233 27.641 8.24823C27.8855 8.18582 28.1884 8.15147 28.4923 8.25047C29.2216 8.48813 29.3521 9.21557 29.3546 9.69958L29.5543 15.2825H31.7631C32.9119 15.265 33.8548 16.1818 33.8744 17.3258L35.1015 29.0169V34.8061H16.1484C14.3535 34.8061 12.8984 33.351 12.8984 31.5561C12.8984 31.2688 12.9357 30.9903 13.0057 30.725ZM29.6079 16.7825L29.8723 24.1761L19.5717 28.3061H33.5187L32.3745 17.4056L32.3747 17.3647C32.3761 17.0391 32.1092 16.7762 31.7837 16.7824L31.7766 16.7825H29.6079Z" fill="#007630"/>
<path fill-rule="evenodd" clip-rule="evenodd" d="M24.1913 15.8822L18.9563 18.9431V17.252L24.1913 14.1535L24.1913 15.8822Z" fill="#007630"/>
<path fill-rule="evenodd" clip-rule="evenodd" d="M12.8984 36.5615C12.8984 34.7665 14.3535 33.3115 16.1484 33.3115H35.1015V39.8115H16.1484C14.3535 39.8115 12.8984 38.3564 12.8984 36.5615ZM16.1484 34.8115C15.1819 34.8115 14.3984 35.595 14.3984 36.5615C14.3984 37.528 15.1819 38.3115 16.1484 38.3115H33.6015V34.8115H16.1484Z" fill="#007630"/>
</svg>
