<svg width="48" height="48" viewBox="0 0 48 48" fill="none" xmlns="http://www.w3.org/2000/svg">
<path fill-rule="evenodd" clip-rule="evenodd" d="M8.74341 12.64C8.74341 11.4894 9.67615 10.5566 10.8267 10.5566H37.1734C38.324 10.5566 39.2567 11.4894 39.2567 12.64V29.92C39.2567 31.0706 38.324 32.0033 37.1734 32.0033H28.3767V35.9434H31.2534V37.4434H16.7467V35.9434H19.6234V32.0033H10.8267C9.67615 32.0033 8.74341 31.0706 8.74341 29.92V12.64ZM21.1234 35.9434H26.8767V32.0033H21.1234V35.9434ZM10.8267 12.0566C10.5046 12.0566 10.2434 12.3178 10.2434 12.64V25.063H37.7567V12.64C37.7567 12.3178 37.4956 12.0566 37.1734 12.0566H10.8267ZM10.2434 29.92V26.563H37.7567V29.92C37.7567 30.2421 37.4956 30.5033 37.1734 30.5033H10.8267C10.5046 30.5033 10.2434 30.2421 10.2434 29.92Z" fill="#007630"/>
</svg>
