<svg width="48" height="48" viewBox="0 0 48 48" fill="none" xmlns="http://www.w3.org/2000/svg">
<path d="M24.75 12.0142C32.3309 12.4067 37.4433 18.7377 37.4433 26.3449V27.2515H35.9433C35.9433 25.7144 34.7564 24.3749 32.6133 24.3749C30.4703 24.3749 29.2832 25.7144 29.2832 27.2515H27.7832L27.7832 27.2334C27.7825 27.1572 27.7776 27.081 27.7685 27.005H27.7721C27.6099 25.6511 26.1291 24.375 24.0036 24.375C23.7422 24.375 23.4906 24.3943 23.25 24.4307C21.4132 24.7068 20.2166 25.9766 20.2166 27.2515H18.7166L18.7166 27.2327C18.7069 25.7035 17.521 24.3749 15.3866 24.3749C13.2436 24.3749 12.0566 25.7144 12.0566 27.2515H10.5566V26.3449C10.5566 18.7377 15.669 12.4067 23.25 12.0142V10.0249H24.75V12.0142Z" fill="#188040"/>
<path d="M23.25 25.9499V34.5047C23.25 35.5927 22.368 36.4751 21.28 36.4751C20.192 36.4751 19.31 35.5931 19.31 34.5051H17.81C17.81 36.4215 19.3636 37.9751 21.28 37.9751C23.1964 37.9751 24.75 36.4212 24.75 34.5047V25.9484C24.53 25.9019 24.2821 25.875 24.0036 25.875C23.7221 25.875 23.4718 25.9025 23.25 25.9499Z" fill="#188040"/>
</svg>
