<svg width="48" height="48" viewBox="0 0 48 48" fill="none" xmlns="http://www.w3.org/2000/svg">
<path fill-rule="evenodd" clip-rule="evenodd" d="M24.75 12.0142C32.3309 12.4067 37.4433 18.7377 37.4433 26.3449V27.2515H35.9433C35.9433 25.7144 34.7564 24.3749 32.6133 24.3749C30.4703 24.3749 29.2833 25.7144 29.2833 27.2515H27.7833C27.7833 25.9766 26.5867 24.7061 24.75 24.43V34.5048H23.25V24.43C21.4132 24.7061 20.2166 25.9766 20.2166 27.2515H18.7166C18.7166 25.7144 17.5297 24.3749 15.3866 24.3749C13.2436 24.3749 12.0566 25.7144 12.0566 27.2515H10.5566V26.3449C10.5566 18.7377 15.669 12.4067 23.25 12.0142V10.0249H24.75V12.0142ZM32.6133 22.8749C31.2198 22.8749 30.0389 23.3265 29.1937 24.0745C28.8879 18.9805 27.8103 15.7204 26.1277 13.6756C31.214 14.5597 34.8514 18.5989 35.7355 23.8338C34.9197 23.2307 33.8503 22.8749 32.6133 22.8749ZM27.6937 24.1171C27.3274 18.1154 25.8741 15.1645 24 13.6724C22.1258 15.1645 20.6726 18.1154 20.3063 24.1171C21.2849 23.334 22.6142 22.8749 24 22.8749C25.3858 22.8749 26.7151 23.334 27.6937 24.1171ZM21.8723 13.6756C16.7859 14.5597 13.1486 18.5989 12.2645 23.8338C13.0803 23.2307 14.1497 22.8749 15.3866 22.8749C16.7802 22.8749 17.961 23.3265 18.8063 24.0745C19.1121 18.9805 20.1897 15.7204 21.8723 13.6756ZM21.28 36.4751C20.192 36.4751 19.31 35.5931 19.31 34.5051H17.81C17.81 36.4216 19.3635 37.9751 21.28 37.9751C23.1964 37.9751 24.75 36.4216 24.75 34.5051H23.25C23.25 35.5931 22.368 36.4751 21.28 36.4751Z" fill="#007630"/>
</svg>
