<svg width="48" height="48" viewBox="0 0 48 48" fill="none" xmlns="http://www.w3.org/2000/svg">
<path fill-rule="evenodd" clip-rule="evenodd" d="M28.65 15.66C28.65 16.8134 27.8932 18.0421 26.2632 19.0499C24.6457 20.05 22.7826 20.7156 20.1371 20.7156C17.4917 20.7156 15.7312 20.05 14.1137 19.0499C12.4837 18.0421 11.7269 16.8134 11.7269 15.66C11.7269 14.5067 12.4837 13.278 14.1137 12.2702C15.7312 11.2701 17.4917 10.6045 20.1371 10.6045C22.7826 10.6045 24.6457 11.2701 26.2632 12.2702C27.8932 13.278 28.65 14.5067 28.65 15.66ZM17.6533 16.2402H22.9423V14.7402H17.6533V16.2402Z" fill="#005924"/>
<path d="M28.7502 19.0767C27.0337 20.9273 23.916 22.16 20.1371 22.16C15.3484 22.16 11.6913 20.1804 10.5567 17.4725L10.5566 31.5681C10.5566 33.3554 11.8177 34.827 13.537 35.8095C15.2776 36.8041 17.6321 37.3955 20.1921 37.3955C22.7521 37.3955 25.1066 36.8041 26.8471 35.8095C27.588 35.3862 28.7502 34.5 28.7502 32.5681V19.0767Z" fill="#005924"/>
<path d="M30.2502 16.0183V29.7803H37.4437V11.7788H28.2753C28.7895 12.2702 29.5247 13.2788 29.5247 13.2788C30.2084 14.308 30.3235 15.2759 30.2502 16.0183Z" fill="#005924"/>
</svg>
