<svg width="48" height="48" viewBox="0 0 48 48" fill="none" xmlns="http://www.w3.org/2000/svg">
<path d="M17.6532 16.2878H22.9421V14.7878H17.6532V16.2878Z" fill="#007630"/>
<path fill-rule="evenodd" clip-rule="evenodd" d="M26.2444 11.8264C24.5805 11.0241 22.4674 10.5569 20.1919 10.5569C17.6319 10.5569 15.2774 11.1482 13.5369 12.1428C11.8177 13.1252 10.5568 14.5965 10.5565 16.3835L10.5564 31.6157C10.5564 33.4031 11.8174 34.8747 13.5368 35.8572C15.2773 36.8518 17.6318 37.4431 20.1918 37.4431C22.7518 37.4431 25.1063 36.8518 26.8469 35.8572C28.5662 34.8747 29.8273 33.4031 29.8273 31.6157V29.8279H37.4435V11.8264H26.2444ZM12.0565 16.3843C12.0565 15.3675 12.7845 14.3004 14.2811 13.4452C15.7564 12.6022 17.8446 12.0569 20.1919 12.0569C22.5392 12.0569 24.6274 12.6022 26.1028 13.4452C27.5989 14.3002 28.327 15.367 28.3273 16.3835L28.3273 16.4032C28.3183 17.4143 27.59 18.4735 26.1028 19.3234C24.6274 20.1664 22.5392 20.7117 20.1919 20.7117C17.8446 20.7117 15.7564 20.1664 14.2811 19.3234C12.7845 18.4682 12.0565 17.4011 12.0565 16.3843ZM29.8273 16.3843L29.8273 16.4095V28.3279H35.9435V13.3264H28.4291C29.286 14.1776 29.8273 15.2132 29.8273 16.3843ZM26.847 20.6257C27.3958 20.3121 27.8979 19.9486 28.3273 19.541V31.6157C28.3273 32.6325 27.5992 33.6996 26.1027 34.5548C24.6273 35.3978 22.5391 35.9431 20.1918 35.9431C17.8445 35.9431 15.7563 35.3978 14.281 34.5548C12.7844 33.6996 12.0564 32.6325 12.0564 31.6157V19.5408C12.4858 19.9485 12.988 20.3121 13.5369 20.6257C15.2774 21.6203 17.6319 22.2117 20.1919 22.2117C22.7519 22.2117 25.1064 21.6203 26.847 20.6257Z" fill="#007630"/>
</svg>
