<svg width="48" height="48" viewBox="0 0 48 48" fill="none" xmlns="http://www.w3.org/2000/svg">
<path d="M22.6665 7.41504L23.6587 8.26552C24.1069 8.64972 24.7663 9.30923 25.3207 10.0695C25.6136 10.4712 25.9077 10.9417 26.1133 11.4428C27.7471 11.0098 29.1623 11.2519 29.6992 11.3776L30.8106 11.6378L28.7017 14.4813C29.5895 14.3804 30.5951 14.4318 31.7273 14.7013L32.9369 14.9893L29.6965 18.6907C28.0645 17.6089 26.0846 16.9799 23.9731 16.9799C21.8813 16.9799 19.9186 17.5973 18.2954 18.6606L15.0813 14.9893L16.291 14.7013C17.4231 14.4318 18.4287 14.3804 19.3166 14.4813L17.2077 11.6378L18.3191 11.3776C18.8715 11.2483 20.2922 11.0085 21.9327 11.4507L22.6665 7.41504Z" fill="#005924"/>
<path d="M19.0829 19.9356C19.154 19.8914 19.2258 19.8482 19.2982 19.8061L19.2933 19.8005C20.6355 18.9658 22.244 18.4799 23.9731 18.4799C25.8356 18.4799 27.5583 19.0437 28.9588 19.9999H28.999C29.0251 20.0167 29.0511 20.0336 29.077 20.0507L24.1547 23.2033L18.9644 20.0108C18.9875 19.9959 19.0107 19.9811 19.0339 19.9664L19.0352 19.9675C19.0511 19.9568 19.067 19.9462 19.0829 19.9356Z" fill="#005924"/>
<path d="M17.7132 21.0023C17.6329 21.0793 17.5538 21.1581 17.476 21.2388C16.2183 22.5421 15.3179 24.2809 14.798 26.377L17.054 27.751L22.7521 24.1016L17.7132 21.0023Z" fill="#005924"/>
<path d="M14.49 27.9457C14.4652 28.1122 14.4426 28.2806 14.422 28.4508C14.3799 28.8 14.3487 29.1488 14.3289 29.4963L15.6484 28.6512L14.49 27.9457Z" fill="#005924"/>
<path d="M14.3294 31.2772C14.4419 33.1463 14.918 34.9182 15.8221 36.4126L22.2698 32.6841L17.0739 29.5195L14.3294 31.2772Z" fill="#005924"/>
<path d="M16.7118 37.6309C18.3213 39.466 20.7401 40.5848 23.9902 40.5848C27.0336 40.5848 29.3481 39.6037 30.9518 37.972L23.7292 33.5729L16.7118 37.6309Z" fill="#005924"/>
<path d="M31.9103 36.7995C33.0559 35.1104 33.6086 33.0205 33.6712 30.8177L31.1623 29.2746L25.2084 32.7175L31.9103 36.7995Z" fill="#005924"/>
<path d="M33.6176 29.0237C33.6011 28.833 33.5813 28.6419 33.5583 28.4508C33.5371 28.2752 33.5136 28.1015 33.488 27.9297L32.638 28.4212L33.6176 29.0237Z" fill="#005924"/>
<path d="M33.1815 26.3741C32.6615 24.2794 31.7614 22.5415 30.5043 21.2388C30.4401 21.1722 30.375 21.1069 30.3091 21.0428L25.5734 24.0759L31.186 27.5281L33.1815 26.3741Z" fill="#005924"/>
<path d="M24.1708 24.9742L29.7103 28.3815L23.749 31.8287L18.4795 28.6193L24.1708 24.9742Z" fill="#005924"/>
</svg>
