<svg width="48" height="48" viewBox="0 0 48 48" fill="none" xmlns="http://www.w3.org/2000/svg">
<path fill-rule="evenodd" clip-rule="evenodd" d="M23.6685 8.26552L22.6763 7.41504L21.9425 11.4507C20.302 11.0085 18.8813 11.2483 18.3289 11.3776L17.2175 11.6378L19.3264 14.4813C18.4385 14.3804 17.4329 14.4318 16.3008 14.7013L15.0911 14.9893L19.3079 19.8061C18.6432 20.1925 18.0337 20.671 17.4858 21.2388C15.8338 22.9506 14.7984 25.4138 14.4318 28.4508C14.0646 31.4929 14.5293 34.5151 16.0814 36.8019C17.6571 39.1235 20.2857 40.5848 23.9999 40.5848C27.7142 40.5848 30.3428 39.1235 31.9185 36.8019C33.4706 34.5151 33.9353 31.4929 33.5681 28.4508C33.2015 25.4138 32.166 22.9506 30.5141 21.2388C29.9731 20.6782 29.372 20.2046 28.7171 19.8207L32.9467 14.9893L31.737 14.7013C30.6049 14.4318 29.5993 14.3804 28.7114 14.4813L30.8204 11.6378L29.709 11.3776C29.1721 11.2519 27.7569 11.0098 26.1231 11.4428C25.9174 10.9417 25.6234 10.4712 25.3305 10.0695C24.7761 9.30923 24.1167 8.64972 23.6685 8.26552ZM24.7214 11.9787C24.5878 11.6639 24.383 11.316 24.1185 10.9533C23.9728 10.7535 23.8176 10.5608 23.6617 10.3804L23.3663 12.0049C23.5845 12.1184 23.8025 12.2463 24.0188 12.39C24.2526 12.2346 24.4873 12.0982 24.7214 11.9787ZM21.575 12.9053C20.9504 12.7341 20.3619 12.6876 19.8703 12.6966L21.7479 15.2283C22.2657 15.5056 22.7146 15.8355 23.0992 16.1845C23.4658 16.5171 23.7701 16.8632 24.0189 17.1906C24.2678 16.8632 24.5721 16.5171 24.9386 16.1845C25.0435 16.0894 25.1531 15.9956 25.2676 15.904C24.1547 14.0321 22.7722 13.2334 21.575 12.9053ZM28.1678 12.6964L26.4672 14.9893C26.0845 14.3693 25.6707 13.8451 25.2383 13.4032C26.2995 12.8168 27.3625 12.6817 28.1678 12.6964ZM23.1693 18.6003L23.1484 18.647C22.2924 18.7138 21.4831 18.8825 20.7274 19.1503L17.9298 15.9546C19.906 15.8008 21.2268 16.5109 22.0912 17.2953C22.5764 17.7356 22.929 18.2111 23.1693 18.6003ZM24.8909 18.6501L24.8685 18.6003C25.1088 18.2111 25.4614 17.7356 25.9466 17.2953C26.811 16.5109 28.1319 15.8008 30.1081 15.9546L27.3014 19.1606C26.549 18.891 25.7432 18.7199 24.8909 18.6501ZM18.5651 22.2804C17.4451 23.441 16.6114 25.0799 16.1608 27.1834L17.0689 27.7366L22.7596 24.0832L19.0645 21.8104C18.8915 21.958 18.725 22.1147 18.5651 22.2804ZM15.8209 30.3203L17.0898 29.5057L22.2843 32.6699L17.1252 35.6525C16.2315 34.1828 15.8004 32.3261 15.8129 30.3079L15.8209 30.3203ZM18.4936 28.6045L23.7636 31.8147L29.7253 28.368L24.1775 24.9554L18.4936 28.6045ZM18.044 36.854L23.7436 33.5589L29.6481 37.1556C28.3554 38.3425 26.5131 39.0848 23.9999 39.0848C21.2801 39.0848 19.3461 38.2154 18.044 36.854ZM25.2229 32.7036L30.6451 36.0066L30.6774 35.9595C31.773 34.3452 32.2636 32.2057 32.1777 29.8764L31.1773 29.2611L25.2229 32.7036ZM31.2012 27.5147L25.5784 24.0561L28.9955 21.8623C29.147 21.9946 29.2935 22.134 29.4347 22.2804C30.5488 23.4349 31.3797 25.0626 31.8319 27.15L31.2012 27.5147ZM24.1604 23.1839L20.4432 20.8973C21.4716 20.384 22.6606 20.1143 23.9999 20.1143C25.3795 20.1143 26.5996 20.4004 27.649 20.9443L24.1604 23.1839Z" fill="#007630"/>
</svg>
