<svg width="48" height="48" viewBox="0 0 48 48" fill="none" xmlns="http://www.w3.org/2000/svg">
<path d="M28.1067 16.5898H26.176V15.0898H28.1067C29.2573 15.0898 30.19 16.0226 30.19 17.1732V22.3678H28.69V17.1732C28.69 16.851 28.4289 16.5898 28.1067 16.5898Z" fill="#007630"/>
<path fill-rule="evenodd" clip-rule="evenodd" d="M19.1287 10.738H32.4587C33.6093 10.738 34.542 11.6708 34.542 12.8214V37.262H13.458V19.5231C13.458 19.0969 13.5887 18.6809 13.8326 18.3313L15.8075 15.4997L13.5332 13.8643L14.4089 12.6464L16.6657 14.2693L19.1287 10.738ZM19.9113 12.238L15.0629 19.1894C14.9946 19.2873 14.958 19.4037 14.958 19.5231V24.6099H33.042V12.8214C33.042 12.4992 32.7808 12.238 32.4587 12.238H19.9113ZM14.958 31.863V26.1099H33.042V31.863H14.958ZM14.958 33.363V35.762H33.042V33.363H14.958Z" fill="#007630"/>
</svg>
