<svg width="48" height="48" viewBox="0 0 48 48" fill="none" xmlns="http://www.w3.org/2000/svg">
<path fill-rule="evenodd" clip-rule="evenodd" d="M28.5372 11.1837L32.6346 12.5846C35.096 13.4261 36.75 15.7395 36.75 18.3408V25.1239H32.75V36.8162H15.25V25.1239H11.25V18.3408C11.25 15.7395 12.904 13.4261 15.3654 12.5846L19.4628 11.1837L20.386 12.3673C22.221 14.7199 25.779 14.7199 27.614 12.3673L28.5372 11.1837ZM15.25 23.6239V19.4508H16.75V35.3162H31.25V19.4508H32.75V23.6239H35.25V18.3408C35.25 16.3809 34.0039 14.6379 32.1494 14.0039L29.0628 12.9487L28.7967 13.2898C27.6336 14.781 25.949 15.5601 24.241 15.627V19.4429H24.991V20.9429H22.741V15.5014C21.398 15.22 20.1338 14.4828 19.2033 13.2898L18.9372 12.9487L15.8506 14.0039C13.9962 14.6379 12.75 16.3809 12.75 18.3408V23.6239H15.25Z" fill="#007630"/>
</svg>
