<svg width="157" height="21" viewBox="0 0 157 21" fill="none" xmlns="http://www.w3.org/2000/svg">
<path d="M16.24 0V8.496H12.256C11.896 3.024 9.49601 0.480003 6.20801 0.480003C2.60801 0.480003 0.0880127 3.504 0.0880127 10.008C0.0880127 16.512 2.60801 19.536 6.20801 19.536C9.64001 19.536 12.112 16.728 12.304 10.728H16.24V20.496H18.616V0H16.24ZM6.20801 17.352C4.07201 17.352 2.46401 15.216 2.46401 10.008C2.46401 4.824 4.07201 2.664 6.20801 2.664C8.32001 2.664 9.92801 4.824 9.92801 10.008C9.92801 15.216 8.32001 17.352 6.20801 17.352ZM35.5339 3.84V5.784H39.4699V10.56H41.8219V0H39.4699V3.84H35.5339ZM29.2459 9.24001V7.416C28.4539 7.704 27.2779 7.82401 26.2939 7.82401H25.3099V2.376H29.1499V0.503998H23.0059V9.696H25.6939C26.9179 9.696 28.3099 9.55201 29.2459 9.24001ZM36.9259 9.12V7.272C35.9659 7.68 34.7899 7.82401 33.6139 7.82401H32.4379V2.376H36.3979V0.503998H30.1339V9.696H33.1339C34.5739 9.696 35.9179 9.552 36.9259 9.12ZM34.2379 11.976V10.536H31.8379V11.976H23.7259V13.8H42.3739V11.976H34.2379ZM33.0619 14.856C27.1099 14.856 24.5899 15.84 24.5899 17.736C24.5899 19.632 27.1099 20.616 33.0619 20.616C39.0139 20.616 41.5339 19.632 41.5339 17.736C41.5339 15.84 39.0139 14.856 33.0619 14.856ZM33.0619 18.888C29.0779 18.888 27.0379 18.504 27.0379 17.736C27.0379 16.968 29.0779 16.584 33.0619 16.584C37.0459 16.584 39.0859 16.968 39.0859 17.736C39.0859 18.504 37.0459 18.888 33.0619 18.888ZM62.9159 0V20.496H65.1959V0H62.9159ZM57.8039 8.256H54.4439C54.4919 7.608 54.5159 6.96001 54.5159 6.26401V0.744003H45.9479V2.904H52.2119V6.384C52.2119 12.72 49.7639 16.872 45.9479 16.992V19.224C50.0039 19.176 53.0999 15.936 54.1319 10.512H57.8039V20.136H60.0599V0.120003H57.8039V8.256ZM92.2 0V8.39999H87.76V0.599998H85.408V7.65601H78.7124V0.599998H76.3604V19.272H87.76V10.632H92.2V20.496H94.6V0H92.2ZM78.7124 17.088V9.84H85.408V17.088H78.7124ZM115.142 20.496H117.518V0H115.142V20.496ZM99.566 19.272H107.87C109.862 19.272 111.998 18.912 113.246 18.288V16.104C111.998 16.704 109.886 17.088 107.942 17.088H101.942V10.944H111.11V0.744003H99.518V2.928H108.734V8.75999H99.566V19.272ZM138.228 0V20.496H140.604V0H138.228ZM130.236 2.928H135.492V0.744003H122.412V2.928H127.836C127.74 10.536 125.58 16.248 121.932 16.92V19.272C125.028 18.912 127.476 16.368 128.892 12.072L134.412 19.104L136.284 17.688L129.588 9.408C129.972 7.488 130.212 5.304 130.236 2.928ZM149.506 14.664H151.858C151.858 12.744 152.17 11.4 154.306 9.936C156.058 8.688 156.97 7.27201 156.97 5.54401C156.97 2.54401 154.762 0.288002 150.874 0.288002C147.202 0.288002 144.706 2.85599 144.634 5.92799H147.082C147.154 4.27199 148.402 2.472 150.898 2.472C153.202 2.472 154.546 3.69601 154.546 5.54401C154.546 6.86401 153.754 7.75201 152.146 8.90401C150.082 10.32 149.506 11.88 149.506 14.664ZM150.73 20.376C151.738 20.376 152.506 19.608 152.506 18.6C152.506 17.616 151.738 16.848 150.73 16.848C149.746 16.848 148.978 17.616 148.978 18.6C148.978 19.608 149.746 20.376 150.73 20.376Z" fill="white"/>
</svg>
