<svg width="40" height="40" viewBox="0 0 40 40" fill="none" xmlns="http://www.w3.org/2000/svg">
<path fill-rule="evenodd" clip-rule="evenodd" d="M20 35.75C28.6985 35.75 35.75 28.6985 35.75 20C35.75 11.3015 28.6985 4.25 20 4.25C11.3015 4.25 4.25 11.3015 4.25 20C4.25 28.6985 11.3015 35.75 20 35.75ZM20 38C29.9411 38 38 29.9411 38 20C38 10.0589 29.9411 2 20 2C10.0589 2 2 10.0589 2 20C2 29.9411 10.0589 38 20 38Z" fill="#777777"/>
<path d="M20 25.625C19.3787 25.625 18.875 26.1287 18.875 26.75C18.875 27.3713 19.3787 27.875 20 27.875C20.6213 27.875 21.125 27.3713 21.125 26.75C21.125 26.1287 20.6213 25.625 20 25.625Z" fill="#777777"/>
<path d="M18.875 22.25C18.875 22.8713 19.3787 23.375 20 23.375C20.6213 23.375 21.125 22.8713 21.125 22.25V13.25C21.125 12.6287 20.6213 12.125 20 12.125C19.3787 12.125 18.875 12.6287 18.875 13.25V22.25Z" fill="#777777"/>
</svg>
