<svg width="50" height="23" viewBox="0 0 50 23" fill="none" xmlns="http://www.w3.org/2000/svg">
<path d="M10.5439 11.136C16.0399 11.136 19.6639 9.072 19.6639 5.664C19.6639 2.256 16.0399 0.192001 10.5439 0.192001C5.04795 0.192001 1.42395 2.256 1.42395 5.664C1.42395 9.072 5.04795 11.136 10.5439 11.136ZM10.5439 2.328C14.4319 2.328 17.1919 3.528 17.1919 5.664C17.1919 7.8 14.4319 9 10.5439 9C6.65595 9 3.89595 7.8 3.89595 5.664C3.89595 3.528 6.65595 2.328 10.5439 2.328ZM20.7919 13.032H0.319946V15.24H9.31995V20.976H11.7439V15.24H20.7919V13.032ZM41.9578 4.656V0H39.5818V15.216H41.9578V6.936H44.8379V4.656H41.9578ZM30.2698 7.296L36.2458 11.904L37.6858 10.2L31.2058 5.304C31.7578 3.768 32.0458 2.088 32.0458 0.335999L29.6698 0.192001C29.6218 4.968 27.3418 9.192 23.4538 9.888V12.12C26.4298 11.736 28.7818 9.888 30.2698 7.296ZM27.2218 13.704H24.8218V20.232H42.5098V18.072H27.2218V13.704ZM49.66 16.992H47.2599L46.4919 22.416H48.4599L49.66 16.992Z" fill="#CCCCCC"/>
</svg>
