<svg width="16" height="17" viewBox="0 0 16 17" fill="none" xmlns="http://www.w3.org/2000/svg">
<path d="M8 2.13203C10.1375 2.13203 10.3906 2.14141 11.2313 2.17891C12.0125 2.21328 12.4344 2.34453 12.7156 2.45391C13.0875 2.59766 13.3563 2.77266 13.6344 3.05078C13.9156 3.33203 14.0875 3.59766 14.2313 3.96953C14.3406 4.25078 14.4719 4.67578 14.5063 5.45391C14.5438 6.29766 14.5531 6.55078 14.5531 8.68516C14.5531 10.8227 14.5438 11.0758 14.5063 11.9164C14.4719 12.6977 14.3406 13.1195 14.2313 13.4008C14.0875 13.7727 13.9125 14.0414 13.6344 14.3195C13.3531 14.6008 13.0875 14.7727 12.7156 14.9164C12.4344 15.0258 12.0094 15.157 11.2313 15.1914C10.3875 15.2289 10.1344 15.2383 8 15.2383C5.8625 15.2383 5.60938 15.2289 4.76875 15.1914C3.9875 15.157 3.56563 15.0258 3.28438 14.9164C2.9125 14.7727 2.64375 14.5977 2.36563 14.3195C2.08438 14.0383 1.9125 13.7727 1.76875 13.4008C1.65938 13.1195 1.52813 12.6945 1.49375 11.9164C1.45625 11.0727 1.44688 10.8195 1.44688 8.68516C1.44688 6.54766 1.45625 6.29453 1.49375 5.45391C1.52813 4.67266 1.65938 4.25078 1.76875 3.96953C1.9125 3.59766 2.0875 3.32891 2.36563 3.05078C2.64688 2.76953 2.9125 2.59766 3.28438 2.45391C3.56563 2.34453 3.99063 2.21328 4.76875 2.17891C5.60938 2.14141 5.8625 2.13203 8 2.13203ZM8 0.691406C5.82813 0.691406 5.55625 0.700781 4.70313 0.738281C3.85313 0.775781 3.26875 0.913281 2.7625 1.11016C2.23438 1.31641 1.7875 1.58828 1.34375 2.03516C0.896875 2.47891 0.625 2.92578 0.41875 3.45078C0.221875 3.96016 0.084375 4.54141 0.046875 5.39141C0.009375 6.24766 0 6.51953 0 8.69141C0 10.8633 0.009375 11.1352 0.046875 11.9883C0.084375 12.8383 0.221875 13.4227 0.41875 13.9289C0.625 14.457 0.896875 14.9039 1.34375 15.3477C1.7875 15.7914 2.23438 16.0664 2.75938 16.2695C3.26875 16.4664 3.85 16.6039 4.7 16.6414C5.55313 16.6789 5.825 16.6883 7.99688 16.6883C10.1688 16.6883 10.4406 16.6789 11.2938 16.6414C12.1438 16.6039 12.7281 16.4664 13.2344 16.2695C13.7594 16.0664 14.2063 15.7914 14.65 15.3477C15.0938 14.9039 15.3688 14.457 15.5719 13.932C15.7688 13.4227 15.9063 12.8414 15.9438 11.9914C15.9813 11.1383 15.9906 10.8664 15.9906 8.69453C15.9906 6.52266 15.9813 6.25078 15.9438 5.39766C15.9063 4.54766 15.7688 3.96328 15.5719 3.45703C15.375 2.92578 15.1031 2.47891 14.6563 2.03516C14.2125 1.59141 13.7656 1.31641 13.2406 1.11328C12.7313 0.916406 12.15 0.778906 11.3 0.741406C10.4438 0.700781 10.1719 0.691406 8 0.691406Z" fill="#555555"/>
<path d="M8 4.58203C5.73125 4.58203 3.89062 6.42266 3.89062 8.69141C3.89062 10.9602 5.73125 12.8008 8 12.8008C10.2688 12.8008 12.1094 10.9602 12.1094 8.69141C12.1094 6.42266 10.2688 4.58203 8 4.58203ZM8 11.357C6.52813 11.357 5.33437 10.1633 5.33437 8.69141C5.33437 7.21953 6.52813 6.02578 8 6.02578C9.47188 6.02578 10.6656 7.21953 10.6656 8.69141C10.6656 10.1633 9.47188 11.357 8 11.357Z" fill="#555555"/>
<path d="M13.2312 4.41934C13.2312 4.95059 12.8 5.37871 12.2719 5.37871C11.7406 5.37871 11.3125 4.94746 11.3125 4.41934C11.3125 3.88809 11.7438 3.45996 12.2719 3.45996C12.8 3.45996 13.2312 3.89121 13.2312 4.41934Z" fill="#555555"/>
</svg>
