<svg width="16" height="17" viewBox="0 0 16 17" fill="none" xmlns="http://www.w3.org/2000/svg">
<g clip-path="url(#clip0_1603_6181)">
<path d="M2.97284 3.49657C3.47017 3.90057 3.65684 3.86991 4.59151 3.80724L13.4015 3.27857C13.5882 3.27857 13.4328 3.09191 13.3708 3.06124L11.9068 2.00324C11.6268 1.78591 11.2528 1.53657 10.5368 1.59857L2.00684 2.22124C1.69617 2.25191 1.63351 2.40791 1.75751 2.53191L2.97284 3.49657ZM3.50151 5.54991V14.8192C3.50151 15.3172 3.75017 15.5039 4.31084 15.4726L13.9928 14.9126C14.5535 14.8819 14.6162 14.5392 14.6162 14.1346V4.92724C14.6162 4.52324 14.4608 4.30524 14.1175 4.33591L3.99951 4.92724C3.62617 4.95858 3.50151 5.14524 3.50151 5.54924V5.54991ZM13.0595 6.04658C13.1215 6.32658 13.0595 6.60658 12.7795 6.63858L12.3128 6.73191V13.5746C11.9075 13.7926 11.5342 13.9172 11.2228 13.9172C10.7242 13.9172 10.5995 13.7612 10.2262 13.2952L7.17484 8.50458V13.1392L8.14017 13.3579C8.14017 13.3579 8.14017 13.9179 7.36151 13.9179L5.21351 14.0419C5.15151 13.9179 5.21351 13.6066 5.43151 13.5446L5.99151 13.3892V7.26058L5.21484 7.19791C5.15217 6.91791 5.30817 6.51391 5.7435 6.48258L8.0475 6.32724L11.2235 11.1799V6.88658L10.4135 6.79391C10.3515 6.45124 10.6002 6.20258 10.9115 6.17191L13.0595 6.04658ZM1.29084 1.38124L10.1642 0.727908C11.2535 0.634574 11.5342 0.696574 12.2188 1.19457L15.0515 3.18524C15.5182 3.52724 15.6742 3.62057 15.6742 3.99391V14.9126C15.6742 15.5966 15.4255 16.0019 14.5542 16.0632L4.24884 16.6859C3.59551 16.7172 3.2835 16.6239 2.94084 16.1879L0.854839 13.4812C0.481505 12.9832 0.326172 12.6106 0.326172 12.1746V2.46924C0.326172 1.90991 0.575505 1.44257 1.29084 1.38124Z" fill="#555555"/>
<path d="M2.97284 3.49657C3.47017 3.90057 3.65684 3.86991 4.59151 3.80724L13.4015 3.27857C13.5882 3.27857 13.4328 3.09191 13.3708 3.06124L11.9068 2.00324C11.6268 1.78591 11.2528 1.53657 10.5368 1.59857L2.00684 2.22124C1.69617 2.25191 1.63351 2.40791 1.75751 2.53191L2.97284 3.49657Z" fill="white"/>
<path fill-rule="evenodd" clip-rule="evenodd" d="M3.50151 5.54991V14.8192C3.50151 15.3172 3.75017 15.5039 4.31084 15.4726L13.9928 14.9126C14.5535 14.8819 14.6162 14.5392 14.6162 14.1346V4.92724C14.6162 4.52324 14.4608 4.30524 14.1175 4.33591L3.99951 4.92724C3.62617 4.95858 3.50151 5.14524 3.50151 5.54924V5.54991ZM12.7795 6.63858C13.0595 6.60658 13.1215 6.32658 13.0595 6.04658L10.9115 6.17191C10.6002 6.20258 10.3515 6.45124 10.4135 6.79391L11.2235 6.88658V11.1799L8.0475 6.32724L5.7435 6.48258C5.30817 6.51391 5.15217 6.91791 5.21484 7.19791L5.99151 7.26058V13.3892L5.43151 13.5446C5.21351 13.6066 5.15151 13.9179 5.21351 14.0419L7.36151 13.9179C8.14017 13.9179 8.14017 13.3579 8.14017 13.3579L7.17484 13.1392V8.50458L10.2262 13.2952L10.2269 13.2961C10.5997 13.7614 10.7245 13.9172 11.2228 13.9172C11.5342 13.9172 11.9075 13.7926 12.3128 13.5746V6.73191L12.7795 6.63858Z" fill="white"/>
</g>
<defs>
<clipPath id="clip0_1603_6181">
<rect width="16" height="16" fill="white" transform="translate(0 0.691406)"/>
</clipPath>
</defs>
</svg>
