<svg width="20" height="20" viewBox="0 0 20 20" fill="none" xmlns="http://www.w3.org/2000/svg">
  <path
    d="M1.66699 4.16667C1.66699 3.24619 2.41318 2.5 3.33366 2.5H16.667C17.5875 2.5 18.3337 3.24619 18.3337 4.16667V14.1667C18.3337 15.0871 17.5875 15.8333 16.667 15.8333H12.8455L10.5896 18.0893C10.2641 18.4147 9.73651 18.4147 9.41107 18.0893L7.15515 15.8333H3.33366C2.41318 15.8333 1.66699 15.0871 1.66699 14.1667V4.16667ZM16.667 4.16667H3.33366V14.1667H7.50033C7.72134 14.1667 7.9333 14.2545 8.08958 14.4107L10.0003 16.3215L11.9111 14.4107C12.0674 14.2545 12.2793 14.1667 12.5003 14.1667H16.667V4.16667Z"
    fill="white"
  />
  <path
    d="M10.0003 10C9.54009 10 9.16699 9.6269 9.16699 9.16667V6.66667C9.16699 6.20643 9.54009 5.83333 10.0003 5.83333C10.4606 5.83333 10.8337 6.20643 10.8337 6.66667V9.16667C10.8337 9.6269 10.4606 10 10.0003 10Z"
    fill="white"
  />
  <path
    d="M8.95866 11.875C8.95866 11.2997 9.42503 10.8333 10.0003 10.8333C10.5756 10.8333 11.042 11.2997 11.042 11.875C11.042 12.4503 10.5756 12.9167 10.0003 12.9167C9.42503 12.9167 8.95866 12.4503 8.95866 11.875Z"
    fill="white"
  />
</svg>