<svg width="14" height="14" viewBox="0 0 14 14" fill="none" xmlns="http://www.w3.org/2000/svg">
<path d="M7.25963 4.20762C6.62161 4.17724 6.0866 4.53364 5.9906 5.10964C5.93007 5.47282 5.58659 5.71817 5.22341 5.65764C4.86023 5.59711 4.61488 5.25362 4.67541 4.89044C4.91274 3.46644 6.21107 2.82285 7.32305 2.8758C7.89266 2.90292 8.47804 3.10737 8.9288 3.52856C9.39075 3.96022 9.66634 4.57855 9.66634 5.33337C9.66634 6.19425 9.32761 6.83265 8.74447 7.22141C8.41363 7.44197 8.03662 7.55998 7.66634 7.61796V7.66671C7.66634 8.0349 7.36786 8.33337 6.99967 8.33337C6.63148 8.33337 6.33301 8.0349 6.33301 7.66671V7.00004C6.33301 6.63185 6.63149 6.33337 6.99967 6.33337C7.44666 6.33337 7.79031 6.25505 8.00487 6.11201C8.17174 6.00077 8.33301 5.80584 8.33301 5.33337C8.33301 4.92153 8.19194 4.66486 8.01847 4.50277C7.83381 4.33022 7.56503 4.22216 7.25963 4.20762Z" fill="#999999"/>
<path d="M6.99967 9.00004C6.53944 9.00004 6.16634 9.37314 6.16634 9.83337C6.16634 10.2936 6.53944 10.6667 6.99967 10.6667C7.45991 10.6667 7.83301 10.2936 7.83301 9.83337C7.83301 9.37314 7.45991 9.00004 6.99967 9.00004Z" fill="#999999"/>
<path fill-rule="evenodd" clip-rule="evenodd" d="M0.333008 7.00004C0.333008 3.31814 3.31778 0.333374 6.99967 0.333374C10.6816 0.333374 13.6663 3.31814 13.6663 7.00004C13.6663 10.6819 10.6816 13.6667 6.99967 13.6667C3.31778 13.6667 0.333008 10.6819 0.333008 7.00004ZM6.99967 1.66671C4.05416 1.66671 1.66634 4.05452 1.66634 7.00004C1.66634 9.94556 4.05416 12.3334 6.99967 12.3334C9.94519 12.3334 12.333 9.94556 12.333 7.00004C12.333 4.05452 9.94519 1.66671 6.99967 1.66671Z" fill="#999999"/>
</svg>
