<svg width="16" height="16" viewBox="0 0 16 16" fill="none" xmlns="http://www.w3.org/2000/svg">
                      <path
                        d="M8.47108 1.52864C8.21073 1.26829 7.78862 1.26829 7.52827 1.52864L5.52827 3.52864C5.26792 3.78899 5.26792 4.2111 5.52827 4.47145C5.78862 4.7318 6.21073 4.7318 6.47108 4.47145L7.33301 3.60952V10C7.33301 10.3682 7.63148 10.6667 7.99967 10.6667C8.36786 10.6667 8.66634 10.3682 8.66634 10V3.60952L9.52827 4.47145C9.78862 4.7318 10.2107 4.7318 10.4711 4.47145C10.7314 4.2111 10.7314 3.78899 10.4711 3.52864L8.47108 1.52864Z"
                        fill="#242424"
                      />
                      <path
                        d="M2.99967 6.00004C2.63148 6.00004 2.33301 6.29852 2.33301 6.66671V14C2.33301 14.3682 2.63148 14.6667 2.99967 14.6667H12.9997C13.3679 14.6667 13.6663 14.3682 13.6663 14V6.66671C13.6663 6.29852 13.3679 6.00004 12.9997 6.00004H9.99967V7.33337H12.333V13.3334H3.66634V7.33337H5.99967V6.00004H2.99967Z"
                        fill="#242424"
                      />
                    </svg>