<svg width="40" height="40" viewBox="0 0 40 40" fill="none" xmlns="http://www.w3.org/2000/svg">
<rect width="40" height="40" rx="20" fill="#1DA1F2"/>
<path d="M16.9186 29.8761C25.2205 29.8761 29.7613 22.9981 29.7613 17.0334C29.7613 16.8381 29.7613 16.6436 29.7481 16.45C30.6315 15.811 31.394 15.0199 32 14.1136C31.1763 14.4788 30.3024 14.7182 29.4075 14.8237C30.3498 14.2597 31.0551 13.3725 31.3919 12.3272C30.5059 12.853 29.5366 13.2235 28.5258 13.4228C27.8452 12.6991 26.9452 12.22 25.9648 12.0594C24.9845 11.8989 23.9786 12.0659 23.1028 12.5346C22.227 13.0033 21.53 13.7476 21.1198 14.6524C20.7097 15.5571 20.6091 16.5718 20.8337 17.5394C19.0392 17.4494 17.2836 16.983 15.681 16.1706C14.0784 15.3581 12.6645 14.2178 11.5312 12.8235C10.954 13.8172 10.7772 14.9935 11.0368 16.1129C11.2965 17.2323 11.973 18.2107 12.9286 18.8489C12.2103 18.8278 11.5076 18.634 10.88 18.2839V18.3411C10.8803 19.3832 11.241 20.3932 11.901 21.1996C12.5611 22.0061 13.4797 22.5594 14.5012 22.7657C13.8367 22.947 13.1395 22.9735 12.4631 22.8432C12.7517 23.74 13.3132 24.5242 14.0693 25.0862C14.8254 25.6482 15.7382 25.9599 16.6801 25.9777C15.7442 26.7133 14.6725 27.2572 13.5263 27.5782C12.3801 27.8993 11.1818 27.9911 10 27.8486C12.0642 29.1732 14.4659 29.8758 16.9186 29.8726" fill="white"/>
</svg>
